<?xml version="1.0" encoding="UTF-8"?>
<svg id="Layer_1" xmlns="http://www.w3.org/2000/svg" version="1.1" viewBox="0 0 900 300" fill="#2E9CAA">
  <!-- Generator: Adobe Illustrator 30.1.0, SVG Export Plug-In . SVG Version: 2.1.1 Build 136)  -->
  <path d="M51.2646,263.6338c-.6484.1602-1.0566-.2441-1.2207-1.2207-.1602-.9766.084-1.5479.7324-1.709,3.7451-.6514,6.5518-1.4639,8.4199-2.4404,1.873-.9766,3.2949-2.7266,4.2715-5.2471.9766-2.5254,1.8691-6.3076,2.6846-11.3496l24.8955-139.3652c0-.4878.4883-1.2202,1.4648-2.1963.9756-.9766,2.1123-2.1968,3.417-3.6611,1.2998-1.4644,2.5205-3.1729,3.6611-5.1255,1.1357-1.9526,1.9521-4.1494,2.4404-6.5903.1602-.6479.6904-.8921,1.5869-.7319.8916.1641,1.2578.5718,1.0977,1.2202l-27.5801,154.7412c-1.1396,6.6709-.7324,11.0635,1.2207,13.1807,1.9521,2.1123,6.4258,2.6846,13.4238,1.708.6484-.3281,1.0986,0,1.3428.9766.2432.9766-.042,1.5439-.8545,1.708l-41.0039,6.1025ZM100.0791,196.7578c-6.5107,0-11.1475-.2441-13.9121-.7324-2.7695-.4883-5.29-.9766-7.5664-1.4639l2.4404-12.2041c3.0889,2.1162,6.6279,3.9053,10.6172,5.3701,3.9854,1.4639,8.9082,2.1963,14.7666,2.1963,7.6465,0,14.1143-2.0332,19.4033-6.1016,5.2861-4.0654,9.5566-9.6797,12.8135-16.8408,3.2539-7.1582,5.4502-15.2129,6.5908-24.1641.8115-5.6934.9336-11.1426.3652-16.3525-.5713-5.2051-2.3184-9.4766-5.2471-12.8135-2.9287-3.333-7.8105-5.0034-14.6445-5.0034-7.6504,0-15.2539,2.2803-22.8203,6.8335-7.5664,4.5576-16.3955,10.8232-26.4824,18.7939-.4873.1641-1.0596-.1221-1.708-.8545-.6523-.7324-.7324-1.1777-.2441-1.3418,9.5986-8.623,19.5254-16.0254,29.7764-22.2109,10.251-6.1821,20.2588-9.2749,30.0215-9.2749,8.9463,0,15.376,2.9292,19.2812,8.7866s5.042,14.3203,3.417,25.3838c-1.1396,8.2979-3.5391,16.1924-7.2002,23.6748-3.6611,7.4863-8.1377,14.1182-13.4238,19.8916-5.2891,5.7783-11.0674,10.293-17.3291,13.5459-6.2656,3.2568-12.5693,4.8818-18.915,4.8818Z"/>
  <path d="M194.2656,199.6865c-6.998,0-11.6777-2.5244-14.0342-7.5664-2.3604-5.041-2.3184-13.2598.1221-24.6514l8.7861-43.4443c.9766-5.042,1.0566-8.7871.2441-11.2275-.8154-2.4404-2.2803-3.6611-4.3926-3.6611-1.793,0-4.1494,1.0605-7.0781,3.1729-2.9297,2.1172-6.1865,5.0459-9.7637,8.7871-.6514.6523-1.3037.6523-1.9521,0-.6523-.6484-.6523-1.3008,0-1.9531,5.3691-6.1816,10.251-10.8989,14.6445-14.1558,4.3926-3.2529,8.6221-4.8813,12.6914-4.8813,3.7412,0,6.1396,1.7505,7.2002,5.2476,1.0566,3.5005.6104,9.7241-1.3428,18.6714l-7.8096,38.8076c-2.1172,9.7627-2.3613,16.9629-.7324,21.5996,1.624,4.6377,5.041,6.9561,10.251,6.9561,5.3691,0,11.0215-3.417,16.9629-10.251,5.9375-6.834,11.5518-16.7988,16.8408-29.8984,5.2861-13.0957,9.6406-28.9229,13.0576-47.4717l2.6855.2437c-3.2568,18.8774-7.7725,35.5122-13.5459,49.9126-5.7783,14.4004-12.3262,25.6279-19.6484,33.6826-7.3223,8.0537-15.0518,12.0811-23.1865,12.0811ZM241.3711,198.71c-3.7451,0-6.0635-1.75-6.9561-5.2471-.8955-3.4971-.5303-9.7207,1.0986-18.6719l12.4473-71.0244c.3242-2.2769,2.4414-3.4175,6.3467-3.4175,2.1123,0,3.4971.1221,4.1484.3662.6484.2441.9766.6104.9766,1.0986,0,.4878-.4082,2.6465-1.2207,6.4678-.8154,3.8247-1.6279,7.8521-2.4404,12.0815l-10.0068,54.4277c-1.6279,9.9268-.2441,14.8887,4.1494,14.8887,1.9521,0,4.4736-.9766,7.5664-2.9287,3.0889-1.9531,6.4258-4.7979,10.0068-8.543.4883-.6484,1.0977-.6104,1.8301.1221s.7705,1.3428.1221,1.8311c-5.5332,6.1855-10.5371,10.8232-15.0098,13.9121-4.4775,3.0889-8.8291,4.6367-13.0586,4.6367Z"/>
  <path d="M285.8145,198.4658c-2.1162,0-3.459-.1221-4.0273-.3652-.5713-.2441-.8535-.6104-.8535-1.0986s.4453-2.8066,1.3418-6.9561c.8926-4.1494,1.667-8.0127,2.3184-11.5938l7.5664-42.7119c1.4648-7.4824,2.0332-13.0967,1.709-16.8418-.3281-3.7412-1.0986-6.3037-2.3193-7.688-1.2197-1.3804-2.5625-2.0747-4.0264-2.0747-2.4414,0-5.0039.9766-7.6885,2.9287-2.6846,1.9531-5.0879,3.9053-7.2002,5.8584-.3281.3281-.8164.2061-1.4648-.3662-.6514-.5684-.8154-1.0986-.4883-1.5869,4.5537-5.2056,8.9092-9.1523,13.0586-11.8374,4.1494-2.6846,8.2559-4.0269,12.3252-4.0269,2.7646,0,4.9199.9761,6.4678,2.9287,1.5449,1.9526,2.3994,5.4917,2.5635,10.6172.1602,5.125-.6523,12.4893-2.4414,22.0889l-10.7393,59.3086c-.3271,2.2773-2.3604,3.417-6.1016,3.417ZM291.916,195.0488l-2.4404-.2441c1.3008-6.9941,3.1729-14.7236,5.6133-23.1865,2.4414-8.458,5.2861-16.8789,8.543-25.2617,3.2529-8.3779,6.7119-16.0664,10.373-23.0645,3.6611-6.9941,7.4023-12.6079,11.2275-16.8408,3.8213-4.2295,7.5244-6.3457,11.1055-6.3457,2.1123,0,4.1865.5718,6.2236,1.7085,2.0322,1.1401,3.6611,2.6846,4.8809,4.6372,1.2207,1.9526,1.5869,4.0693,1.0986,6.3457-.4883,2.1172-1.3428,3.623-2.5625,4.5156-1.2207.8965-2.7266,1.3418-4.5156,1.3418-2.4404,0-4.1914-.6895-5.2471-2.0742-1.0605-1.3809-1.9531-2.7646-2.6855-4.1494-.7314-1.3804-1.9141-2.0742-3.5391-2.0742-2.4404,0-5.0869,1.9521-7.9316,5.8574-2.8486,3.9053-5.8203,9.0312-8.9092,15.377-3.0928,6.3457-6.0215,13.3018-8.7861,20.8682-2.7686,7.5664-5.248,15.0938-7.4443,22.5762-2.1963,7.4863-3.8672,14.1562-5.0039,20.0137Z"/>
  <path d="M374.8027,198.71c-3.5811,0-5.9795-1.6279-7.2002-4.8809s-.9385-9.5986.8545-19.0381l10.0068-50.7666c1.9521-9.9229.5684-14.8887-4.1494-14.8887-1.9521,0-4.4766.9766-7.5664,2.9287-3.0928,1.9531-6.4297,4.8018-10.0068,8.543-.4883.6523-1.0977.6104-1.8301-.1221s-.7744-1.3428-.1221-1.8311c5.5293-6.1816,10.5332-10.8188,15.0098-13.9116,4.4736-3.0889,8.7451-4.6372,12.8145-4.6372,3.9053,0,6.3457,1.7505,7.3223,5.2476.9756,3.5005.5684,9.7241-1.2207,18.6714l-9.7627,50.7666c-.9766,5.0459-1.0605,8.7871-.2441,11.2275.8125,2.4404,2.2764,3.6611,4.3936,3.6611,1.7881,0,4.2285-.9766,7.3223-2.9287,3.0889-1.9531,6.4258-4.7979,10.0068-8.543.6475-.6484,1.2998-.6104,1.9521.1221.6484.7324.6484,1.3428,0,1.8311-5.3691,6.1855-10.293,10.8232-14.7666,13.9121-4.4766,3.0889-8.748,4.6367-12.8135,4.6367ZM389.9355,70.3286c-3.0928,0-5.4922-.8125-7.2002-2.4409-1.709-1.6245-2.5635-3.9854-2.5635-7.0781,0-2.7646.8545-4.9614,2.5635-6.5898,1.708-1.6245,4.1074-2.4409,7.2002-2.4409,3.0889,0,5.4492.8164,7.0781,2.4409,1.624,1.6284,2.4404,3.8252,2.4404,6.5898,0,6.3462-3.1729,9.519-9.5186,9.519Z"/>
  <path d="M431.1084,199.1982c-5.8574,0-11.0254-1.4258-15.498-4.2715-4.4775-2.8447-6.3877-6.3037-5.7363-10.373.3242-1.9521,1.1367-3.417,2.4414-4.3926,1.2998-.9766,2.6846-1.4648,4.1494-1.4648,1.7881,0,3.1309.8164,4.0264,2.4404.8926,1.6289,1.8691,3.459,2.9287,5.4922,1.0566,2.0361,2.6436,3.8672,4.7598,5.4912,2.1133,1.6289,5.2061,2.4414,9.2744,2.4414,4.7178,0,8.5811-1.3428,11.5938-4.0273,3.0098-2.6855,4.8398-6.7119,5.4922-12.082.8125-5.041.1602-9.3965-1.9531-13.0576-2.1162-3.6611-4.9648-6.9561-8.542-9.8848-3.5811-2.9287-7.0781-5.8965-10.4951-8.9092-3.417-3.0088-6.1445-6.3457-8.1768-10.0068-2.0361-3.6611-2.5625-8.0117-1.5869-13.0576.9766-5.3691,3.1318-9.8008,6.4688-13.3018,3.333-3.4971,7.2383-6.1021,11.7148-7.8105,4.4736-1.7085,8.9092-2.5625,13.3027-2.5625,5.3691,0,9.9219,1.1401,13.668,3.417,3.7402,2.2803,5.3691,4.9653,4.8809,8.0537-.3281,2.1172-1.1816,3.623-2.5625,4.5156-1.3848.8965-2.7266,1.3428-4.0273,1.3428-1.9531,0-3.5391-.6104-4.7598-1.8311-1.2207-1.2197-2.4395-2.6426-3.6602-4.271-1.2207-1.6245-2.7266-3.0508-4.5156-4.271-1.793-1.2207-4.3135-1.8306-7.5664-1.8306-3.0928,0-5.9805.7739-8.665,2.3184-2.6846,1.5483-4.2705,4.1909-4.7588,7.9321-.8164,4.8818-.1641,9.1152,1.9521,12.6924,2.1133,3.5811,4.9199,6.918,8.4209,10.0068,3.4971,3.0928,6.9941,6.2236,10.4941,9.3965,3.498,3.1729,6.2637,6.7119,8.2988,10.6172,2.0332,3.9053,2.6426,8.4629,1.8301,13.668-.8145,4.8818-2.8066,9.4385-5.9785,13.668-3.1738,4.2334-7.1201,7.6084-11.8379,10.1289-4.7217,2.5215-9.8467,3.7832-15.377,3.7832Z"/>
  <path d="M495.9805,199.1982c-5.8574,0-11.0254-1.4258-15.498-4.2715-4.4775-2.8447-6.3887-6.3037-5.7363-10.373.3242-1.9521,1.1367-3.417,2.4404-4.3926,1.3008-.9766,2.6855-1.4648,4.1494-1.4648,1.7891,0,3.1309.8164,4.0273,2.4404.8926,1.6289,1.8691,3.459,2.9287,5.4922,1.0566,2.0361,2.6436,3.8672,4.7598,5.4912,2.1123,1.6289,5.2051,2.4414,9.2744,2.4414,4.7178,0,8.5811-1.3428,11.5938-4.0273,3.0088-2.6855,4.8389-6.7119,5.4912-12.082.8125-5.041.1602-9.3965-1.9521-13.0576-2.1172-3.6611-4.9658-6.9561-8.543-9.8848-3.5811-2.9287-7.0781-5.8965-10.4951-8.9092-3.417-3.0088-6.1436-6.3457-8.1758-10.0068-2.0371-3.6611-2.5635-8.0117-1.5869-13.0576.9766-5.3691,3.1309-9.8008,6.4678-13.3018,3.333-3.4971,7.2383-6.1021,11.7158-7.8105,4.4736-1.7085,8.9082-2.5625,13.3018-2.5625,5.3701,0,9.9229,1.1401,13.668,3.417,3.7412,2.2803,5.3701,4.9653,4.8818,8.0537-.3281,2.1172-1.1826,3.623-2.5635,4.5156-1.3838.8965-2.7266,1.3428-4.0264,1.3428-1.9531,0-3.5391-.6104-4.7598-1.8311-1.2207-1.2197-2.4404-2.6426-3.6611-4.271-1.2207-1.6245-2.7266-3.0508-4.5156-4.271-1.792-1.2207-4.3125-1.8306-7.5654-1.8306-3.0938,0-5.9805.7739-8.665,2.3184-2.6846,1.5483-4.2715,4.1909-4.7598,7.9321-.8154,4.8818-.1641,9.1152,1.9531,12.6924,2.1123,3.5811,4.9189,6.918,8.4199,10.0068,3.4971,3.0928,6.9941,6.2236,10.4951,9.3965,3.4971,3.1729,6.2627,6.7119,8.2988,10.6172,2.0322,3.9053,2.6426,8.4629,1.8301,13.668-.8154,4.8818-2.8066,9.4385-5.9795,13.668-3.1729,4.2334-7.1201,7.6084-11.8369,10.1289-4.7217,2.5215-9.8467,3.7832-15.377,3.7832Z"/>
  <path d="M567.417,198.71c-3.5811,0-5.9795-1.6279-7.2002-4.8809-1.2197-3.2529-.9375-9.5986.8545-19.0381l10.0068-50.7666c1.9531-9.9229.5684-14.8887-4.1494-14.8887-1.9521,0-4.4766.9766-7.5654,2.9287-3.0928,1.9531-6.4307,4.8018-10.0078,8.543-.4873.6523-1.0977.6104-1.8301-.1221s-.7744-1.3428-.1221-1.8311c5.5293-6.1816,10.5332-10.8188,15.0107-13.9116,4.4727-3.0889,8.7441-4.6372,12.8135-4.6372,3.9053,0,6.3457,1.7505,7.3223,5.2476.9766,3.5005.5684,9.7241-1.2207,18.6714l-9.7627,50.7666c-.9766,5.0459-1.0605,8.7871-.2441,11.2275.8125,2.4404,2.2773,3.6611,4.3936,3.6611,1.7881,0,4.2295-.9766,7.3223-2.9287,3.0889-1.9531,6.4258-4.7979,10.0068-8.543.6484-.6484,1.3008-.6104,1.9521.1221.6484.7324.6484,1.3428,0,1.8311-5.3691,6.1855-10.293,10.8232-14.7656,13.9121-4.4775,3.0889-8.749,4.6367-12.8145,4.6367ZM582.5498,70.3286c-3.0928,0-5.4922-.8125-7.2002-2.4409-1.709-1.6245-2.5625-3.9854-2.5625-7.0781,0-2.7646.8535-4.9614,2.5625-6.5898,1.708-1.6245,4.1074-2.4409,7.2002-2.4409,3.0889,0,5.4492.8164,7.0781,2.4409,1.624,1.6284,2.4404,3.8252,2.4404,6.5898,0,6.3462-3.1729,9.519-9.5186,9.519Z"/>
  <path d="M612.0078,198.4658c-2.1162,0-3.459-.1221-4.0273-.3652-.5713-.2441-.8535-.6104-.8535-1.0986s.4043-2.5625,1.2197-6.2236c.8125-3.6611,1.5449-7.2803,2.1973-10.8613l10.251-55.8926c1.624-9.9229.2441-14.8887-4.1494-14.8887-1.9531,0-4.4775.9766-7.5664,2.9287-3.0928,1.9531-6.4297,4.8018-10.0068,8.543-.4883.6523-1.0986.6104-1.8311-.1221-.7314-.7324-.7734-1.3428-.1211-1.8311,5.3691-6.1816,10.373-10.8188,15.0098-13.9116,4.6377-3.0889,8.9893-4.6372,13.0576-4.6372,3.7412,0,6.0605,1.7505,6.9561,5.2476.8926,3.5005.5264,9.7241-1.0977,18.6714l-12.6924,71.0244c-.4873,2.2773-2.6045,3.417-6.3457,3.417ZM665.7041,198.4658c-2.1172,0-3.459-.1221-4.0273-.3652-.5723-.2441-.8545-.6104-.8545-1.0986s.4463-2.8066,1.3428-6.9561c.8926-4.1494,1.666-8.0127,2.3184-11.5938l7.8105-42.4688c1.2998-9.5986,1.3418-16.7568.1221-21.4775-1.2207-4.7178-4.0273-7.0786-8.4209-7.0786-5.0449,0-10.4951,3.417-16.3525,10.2515-5.8574,6.834-11.3496,16.8027-16.4746,29.8984-5.126,13.0996-9.3975,28.9229-12.8145,47.4717l-2.6846-.2441c3.2529-18.873,7.7266-35.5117,13.4238-49.9121,5.6943-14.4004,12.1201-25.6279,19.2822-33.6821,7.1582-8.0542,14.6445-12.0815,22.4541-12.0815,6.1826,0,10.373,2.4829,12.5703,7.4443,2.1963,4.9648,2.1543,13.2217-.1221,24.7734l-11.4717,63.7021c-.3281,2.2773-2.3604,3.417-6.1016,3.417ZM725.2578,198.71c-3.7451,0-6.0645-1.75-6.9561-5.2471-.8965-3.4971-.5303-9.7207,1.0977-18.6719l7.0781-38.8076c1.625-9.5986,1.7471-16.7568.3662-21.4775-1.3838-4.7178-4.4355-7.0786-9.1523-7.0786-5.21,0-10.7393,3.417-16.5967,10.2515-5.8584,6.834-11.3496,16.8027-16.4756,29.8984-5.125,13.0996-9.3965,28.9229-12.8135,47.4717l-2.4404-.2441c3.2529-18.873,7.7266-35.5117,13.4238-49.9121,5.6934-14.4004,12.1191-25.6279,19.2812-33.6821,7.1582-8.0542,14.6445-12.0815,22.4551-12.0815,6.5059,0,10.7773,2.4829,12.8135,7.4443,2.0332,4.9648,2.0742,13.2217.1221,24.7734l-7.8105,43.4443c-.8154,5.0459-.8535,8.7871-.1221,11.2275.7324,2.4404,2.0752,3.6611,4.0273,3.6611,1.9531,0,4.3936-1.0986,7.3223-3.2949s6.1816-5.084,9.7627-8.665c.6484-.6475,1.3008-.6475,1.9531,0,.6484.6523.6484,1.3047,0,1.9531-5.3701,6.0215-10.2129,10.7012-14.5225,14.0342-4.3135,3.333-8.585,5.0029-12.8135,5.0029Z"/>
  <path d="M790.6914,199.9307c-7.4863,0-13.71-2.2383-18.6709-6.7119-4.9658-4.4736-8.3828-10.5332-10.251-18.1836-1.873-7.6465-1.915-16.1885-.1221-25.627,1.7881-9.4355,5.1631-17.9395,10.1289-25.5059,4.9609-7.5664,10.9834-13.584,18.0605-18.0615,7.0781-4.4731,14.6025-6.7119,22.5771-6.7119,8.2988,0,14.9688,2.3188,20.0137,6.9561,5.042,4.6372,8.3789,10.7812,10.0068,18.4277,1.625,7.6494,1.5449,15.9482-.2441,24.8955-1.9521,10.0908-5.6133,18.957-10.9824,26.6035-5.3701,7.6504-11.6357,13.5459-18.7939,17.6953-7.1621,4.1494-14.4004,6.2236-21.7227,6.2236ZM799.2344,193.8291c7.1582,0,13.748-2.9287,19.7695-8.7871,6.0176-5.8574,10.0068-14.1562,11.96-24.8955,1.1357-5.6934,1.502-11.7148,1.0977-18.0605-.4082-6.3457-1.6279-12.3262-3.6611-17.9395-2.0361-5.6143-4.9648-10.209-8.7861-13.79-3.8252-3.5771-8.585-5.3696-14.2783-5.3696-7.3223,0-14.0342,3.0928-20.1357,9.2749-6.1016,6.1855-10.2129,14.4004-12.3262,24.6514-1.3037,6.0215-1.708,12.2031-1.2197,18.5488s1.8301,12.2881,4.0273,17.8174c2.1963,5.5332,5.2852,10.0068,9.2744,13.4238,3.9854,3.417,8.7441,5.126,14.2783,5.126Z"/>
</svg>